<svg width="70" height="70" viewBox="0 0 70 70" fill="none" xmlns="http://www.w3.org/2000/svg">
<path fill-rule="evenodd" clip-rule="evenodd" d="M20.6691 42.1514C22.9876 34.8823 23.5145 34.2502 39.533 18.3424C57.8699 0.222227 59.2399 -0.515222 64.9307 5.06832C70.5161 10.7572 69.7784 12.1268 51.6522 30.4576C35.7391 46.4708 35.1068 46.9975 27.8353 49.3152C22.8822 50.8955 19.9314 51.3169 19.2991 50.6848C18.6668 50.0527 19.0883 47.1029 20.6691 42.1514ZM48.3853 27.4025C62.0853 13.6016 63.7714 11.3893 62.823 9.59836C60.1884 4.75227 58.713 5.70041 42.5891 21.7136C32.2614 31.9325 26.4653 38.3588 25.7276 40.7819C25.0953 42.6782 24.7791 44.5745 25.0953 44.8905C25.4114 45.2066 27.3083 44.8905 29.2053 44.2584C31.6291 43.521 38.0576 37.7267 48.3853 27.4025ZM4 12.5309C4 9.76945 6.23857 7.53088 9 7.53088H37.1962C38.5058 7.53088 39.5674 8.59212 39.5674 9.90125C39.5674 11.2104 38.5058 12.2716 37.1962 12.2716H13.7423C10.9809 12.2716 8.74231 14.5102 8.74231 17.2716V56.2593C8.74231 59.0207 10.9809 61.2593 13.7423 61.2593H48.0039C50.7653 61.2593 53.0039 59.0207 53.0039 56.2593V37.5556C53.0039 36.2464 54.0655 35.1852 55.3751 35.1852C56.6846 35.1852 57.7462 36.2464 57.7462 37.5556V61C57.7462 63.7614 55.5076 66 52.7462 66H9C6.23858 66 4 63.7614 4 61V12.5309Z" fill="#37455C"/>
</svg>
