<svg width="70" height="70" viewBox="0 0 70 70" fill="none" xmlns="http://www.w3.org/2000/svg">
<path fill-rule="evenodd" clip-rule="evenodd" d="M9 7.53088C6.23857 7.53088 4 9.76946 4 12.5309V61C4 63.7614 6.23858 66 9 66H52.7462C55.5076 66 57.7462 63.7614 57.7462 61V37.5556C57.7462 36.2464 56.6846 35.1852 55.3751 35.1852C54.0655 35.1852 53.0039 36.2464 53.0039 37.5556V56.2593C53.0039 59.0207 50.7653 61.2593 48.0039 61.2593H13.7423C10.9809 61.2593 8.74231 59.0207 8.74231 56.2593V17.2716C8.74231 14.5102 10.9809 12.2716 13.7423 12.2716H37.1962C38.5058 12.2716 39.5674 11.2104 39.5674 9.90125C39.5674 8.59213 38.5058 7.53088 37.1962 7.53088H9Z" fill="#37455C"/>
<path fill-rule="evenodd" clip-rule="evenodd" d="M58.3103 5.78626C57.3942 4.74074 55.8284 4.66271 54.8129 5.61196L31.8789 27.0505L22.8455 17.6756C21.8761 16.6696 20.3 16.6653 19.3252 17.6662C18.3504 18.667 18.3461 20.2939 19.3155 21.3L29.9532 32.3398C30.8613 33.2823 32.3018 33.3456 33.2817 32.5271C33.454 32.4309 33.618 32.312 33.7697 32.1702L58.1303 9.39813C59.1458 8.44887 59.2264 6.83178 58.3103 5.78626ZM63.9578 12.5264C63.0456 11.4772 61.4799 11.3931 60.4607 12.3386L36.3456 34.7086C35.3263 35.6541 35.2395 37.2711 36.1516 38.3203C37.0638 39.3695 38.6295 39.4535 39.6487 38.5081L63.7639 16.138C64.7831 15.1925 64.8699 13.5755 63.9578 12.5264ZM13.4081 23.649C12.4292 24.6455 12.4178 26.2722 13.3826 27.2823L23.8994 38.2923C24.8643 39.3025 26.44 39.3135 27.419 38.317C28.3979 37.3205 28.4093 35.6938 27.4445 34.6837L16.9277 23.6737C15.9628 22.6635 14.3871 22.6525 13.4081 23.649Z" fill="#37455C"/>
<rect width="5.05937" height="18.99" rx="2.52969" transform="matrix(0.764482 -0.644645 -0.668576 -0.743644 46.8674 51.0275)" fill="#37455C"/>
<rect width="5.05864" height="18.8058" rx="2.52932" transform="matrix(0.761519 -0.648143 -0.672022 -0.740531 40.4411 56.4678)" fill="#37455C"/>
<rect width="5.05937" height="18.828" rx="2.52969" transform="matrix(0.654696 0.755892 0.734739 -0.678349 17.3274 52.0649)" fill="#37455C"/>
<rect width="5.05864" height="19.0616" rx="2.52932" transform="matrix(0.658155 0.752883 0.731581 -0.681754 11.4965 45.9953)" fill="#37455C"/>
<path d="M23.5786 18.428C21.9282 20.0337 20.7373 21.1922 19.9502 21.958C19 21.5 18 22 18 22C18 22 17 23 17.5346 24.3081C16.7039 25.1163 15.1525 26.6257 13.9033 27.841C11.2493 25.1131 11.2638 20.7946 13.9356 18.1952C16.6074 15.5959 20.9247 15.7001 23.5786 18.428Z" fill="#37455C"/>
<path d="M64.1707 15.6483C62.4712 14.036 61.1071 13.2689 60.2966 12.5C60.7116 11.5279 60 10.5 60 10.5C60 10.5 58.7923 9.41975 57.5 10C56.6447 9.18854 55.4943 7.41699 54.208 6.19667C56.8274 3.43562 61.1811 3.31318 63.9322 5.92319C66.6834 8.5332 66.7901 12.8873 64.1707 15.6483Z" fill="#37455C"/>
<path d="M49.2235 46C47.4795 47.5036 46.2212 48.5885 45.3895 49.3056C45.7625 50.2921 45.1769 51.2445 45.1769 51.2445C45.1769 51.2445 44.0933 52.1532 42.8371 51.5063C41.9593 52.2631 40.32 53.6766 39 54.8146C41.4848 57.6966 45.7877 58.0596 48.6109 55.6255C51.434 53.1914 51.7083 48.8819 49.2235 46Z" fill="#37455C"/>
<path d="M22.3527 54.2988C20.822 52.5889 19.7177 51.3552 18.9877 50.5397C18.0091 50.9319 17.0484 50.3668 17.0484 50.3668C17.0484 50.3668 16.1229 49.3037 16.7474 48.0371C15.9771 47.1765 14.5382 45.5691 13.3797 44.2749C10.5444 46.8128 10.2547 51.1142 12.7325 53.8822C15.2103 56.6503 19.5174 56.8368 22.3527 54.2988Z" fill="#37455C"/>
</svg>
