<svg width="81" height="81" viewBox="0 0 81 81" fill="none" xmlns="http://www.w3.org/2000/svg">
<path d="M44.9565 20.6834C24.6898 40.8167 24.0231 41.6167 21.0898 50.8167C19.0898 57.0833 18.5565 60.8167 19.3565 61.6167C20.1565 62.4167 23.8898 61.8833 30.1565 59.8833C39.3565 56.95 40.1565 56.2833 60.2898 36.0167C83.2231 12.8167 84.1565 11.0834 77.0898 3.88335C69.8898 -3.18331 68.1565 -2.24998 44.9565 20.6834ZM74.4231 9.61669C75.6231 11.8834 73.4898 14.6834 56.1565 32.15C43.0898 45.2167 34.9565 52.55 31.8898 53.4833C29.4898 54.2833 27.0898 54.6833 26.6898 54.2833C26.2898 53.8833 26.6898 51.4833 27.4898 49.0833C28.4231 46.0167 35.7565 37.8834 48.8231 24.95C69.2231 4.68335 71.0898 3.48335 74.4231 9.61669Z" fill="black"/>
<path fill-rule="evenodd" clip-rule="evenodd" d="M5 7C2.23858 7 0 9.23858 0 12V76C0 78.7614 2.23858 81 5 81H63C65.7614 81 68 78.7614 68 76V45C68 43.3431 66.6569 42 65 42C63.3431 42 62 43.3431 62 45V70C62 72.7614 59.7614 75 57 75H11C8.23858 75 6 72.7614 6 70V18C6 15.2386 8.23858 13 11 13H42C43.6569 13 45 11.6569 45 10C45 8.34314 43.6569 7 42 7H5Z" fill="black"/>
</svg>
