<svg width="70" height="70" viewBox="0 0 70 70" fill="none" xmlns="http://www.w3.org/2000/svg">
<path fill-rule="evenodd" clip-rule="evenodd" d="M9 7.53088C6.23857 7.53088 4 9.76946 4 12.5309V61C4 63.7614 6.23858 66 9 66H52.7462C55.5076 66 57.7462 63.7614 57.7462 61V37.5556C57.7462 36.2464 56.6846 35.1852 55.3751 35.1852C54.0655 35.1852 53.0039 36.2464 53.0039 37.5556V56.2593C53.0039 59.0207 50.7653 61.2593 48.0039 61.2593H13.7423C10.9809 61.2593 8.74231 59.0207 8.74231 56.2593V17.2716C8.74231 14.5102 10.9809 12.2716 13.7423 12.2716H37.1962C38.5058 12.2716 39.5674 11.2104 39.5674 9.90125C39.5674 8.59213 38.5058 7.53088 37.1962 7.53088H9Z" fill="#37455C"/>
<path fill-rule="evenodd" clip-rule="evenodd" d="M56.2241 2.78799C56.9811 1.91503 58.1903 1.70817 59.163 2.20532C59.4982 2.31115 59.8172 2.49314 60.0952 2.75287L65.9225 8.19863C66.1525 8.41353 66.3312 8.66371 66.4586 8.93335C67.1897 9.8954 67.1688 11.287 66.3509 12.2226L36.6645 46.1846C36.1565 46.7658 35.4477 47.0489 34.7438 47.0234C34.1233 47.0728 33.4828 46.8834 32.9625 46.4416L15.0659 31.245C14.7859 31.0072 14.5685 30.7199 14.4161 30.4057C13.8628 29.5727 13.8382 28.424 14.4826 27.5586L19.5004 20.8205C19.9623 20.2004 20.6566 19.8768 21.3603 19.8746C21.9873 19.8162 22.6375 20.0019 23.1659 20.4464L33.4279 29.0785L56.2241 2.78799ZM19.7062 28.5522L34.4502 41.0719L61.2533 10.4086L58.4316 7.92212L35.8436 33.9725C35.7203 34.1146 35.5851 34.2391 35.4409 34.3457C34.5553 35.2993 33.0891 35.4015 32.0732 34.5469L21.7364 25.8519L19.7062 28.5522Z" fill="#37455C"/>
</svg>
