<svg width="70" height="70" viewBox="0 0 70 70" fill="none" xmlns="http://www.w3.org/2000/svg">
<path fill-rule="evenodd" clip-rule="evenodd" d="M9 7.53088C6.23857 7.53088 4 9.76946 4 12.5309V61C4 63.7614 6.23858 66 9 66H52.7462C55.5076 66 57.7462 63.7614 57.7462 61V37.5556C57.7462 36.2464 56.6846 35.1852 55.3751 35.1852C54.0655 35.1852 53.0039 36.2464 53.0039 37.5556V56.2593C53.0039 59.0207 50.7653 61.2593 48.0039 61.2593H13.7423C10.9809 61.2593 8.74231 59.0207 8.74231 56.2593V17.2716C8.74231 14.5102 10.9809 12.2716 13.7423 12.2716H37.1962C38.5058 12.2716 39.5674 11.2104 39.5674 9.90125C39.5674 8.59213 38.5058 7.53088 37.1962 7.53088H9Z" fill="#37455C"/>
<path fill-rule="evenodd" clip-rule="evenodd" d="M57.5982 5.04331C56.5778 4.09931 55.0124 4.18543 54.1018 5.23567L33.4279 29.0785L23.1659 20.4464C22.0968 19.547 20.5289 19.7074 19.6639 20.8045C18.7989 21.9017 18.9644 23.5201 20.0336 24.4195L32.0732 34.5469C33.0891 35.4015 34.5554 35.2993 35.441 34.3457C35.5852 34.2391 35.7204 34.1146 35.8436 33.9725L57.7968 8.6542C58.7075 7.60396 58.6186 5.98731 57.5982 5.04331ZM63.9535 11.1424C62.9368 10.1942 61.3708 10.2741 60.4559 11.3208L34.4502 41.0719L18.216 27.2869C17.1512 26.3827 15.5829 26.5358 14.713 27.6288C13.8431 28.7218 14.0012 30.3409 15.066 31.245L32.9625 46.4416C33.4828 46.8834 34.1233 47.0728 34.7438 47.0234C35.4478 47.0489 36.1565 46.7658 36.6645 46.1846L64.1377 14.7546C65.0526 13.7079 64.9702 12.0907 63.9535 11.1424Z" fill="#37455C"/>
<path d="M64.3024 14.451C62.6029 12.8387 61.2387 12.0716 60.4282 11.3027C60.8433 10.3306 60.1317 9.30265 60.1317 9.30265C60.1317 9.30265 58.924 8.2224 57.6317 8.80265C56.7763 7.9912 55.626 6.21964 54.3396 4.99932C56.9591 2.23827 61.3127 2.11583 64.0639 4.72584C66.815 7.33585 66.9218 11.6899 64.3024 14.451Z" fill="#37455C"/>
<path d="M24.0759 21.2106C22.4829 22.8645 21.7263 24.2012 20.9665 24.99C20.0027 24.5623 18.9862 25.2487 18.9862 25.2487C18.9862 25.2487 17.919 26.4252 18.4968 27.7142C17.6951 28.5466 15.943 29.6543 14.7373 30.9061C11.9962 28.2658 11.8646 23.9551 14.4433 21.2777C17.0221 18.6004 21.3348 18.5704 24.0759 21.2106Z" fill="#37455C"/>
</svg>
